<?xml version="1.0" standalone="no"?>
<!DOCTYPE svg PUBLIC "-//W3C//DTD SVG 20010904//EN"
 "http://www.w3.org/TR/2001/REC-SVG-20010904/DTD/svg10.dtd">
<svg version="1.0" xmlns="http://www.w3.org/2000/svg"
 width="138.000000pt" height="120.000000pt" viewBox="0 0 138.000000 120.000000"
 preserveAspectRatio="xMidYMid meet">
<metadata>
Created by potrace 1.16, written by Peter Selinger 2001-2019
</metadata>
<g transform="translate(0.000000,120.000000) scale(0.100000,-0.100000)"
fill="#000000" stroke="none">
<path d="M454 1055 c-12 -31 7 -34 167 -30 133 3 161 1 166 -11 3 -9 -36 -56
-109 -129 l-115 -115 -61 0 -61 0 -73 -74 c-57 -58 -82 -76 -111 -81 -33 -7
-39 -5 -44 13 -3 11 -11 23 -19 26 -8 3 -14 14 -14 25 0 10 -9 21 -20 24 -17
4 -20 14 -20 61 0 49 2 56 20 56 13 0 20 7 20 20 0 13 7 20 20 20 14 0 20 7
20 21 0 15 5 20 23 17 18 -2 23 -10 25 -41 3 -32 0 -39 -17 -44 -15 -4 -21
-13 -21 -34 0 -25 4 -29 29 -29 20 0 30 6 34 20 4 17 14 20 61 20 31 0 56 5
56 10 0 6 -15 10 -34 10 -19 0 -37 4 -40 9 -11 17 7 74 25 78 9 3 19 13 22 24
3 10 12 19 21 19 9 0 16 7 16 16 0 9 9 18 20 21 24 6 27 38 4 47 -9 3 -38 6
-65 6 -42 0 -49 -3 -49 -20 0 -16 -7 -20 -35 -20 -30 0 -35 -3 -35 -24 0 -15
-7 -26 -20 -29 -11 -3 -20 -12 -20 -21 0 -9 -8 -16 -20 -16 -13 0 -20 -7 -20
-20 0 -13 -7 -20 -20 -20 -10 0 -23 -6 -27 -13 -4 -8 -16 -16 -25 -20 -15 -5
-18 -19 -18 -88 0 -71 2 -81 19 -86 11 -3 21 -13 24 -24 3 -10 12 -19 21 -19
9 0 16 -8 16 -20 0 -13 7 -20 20 -20 13 0 20 -7 20 -20 0 -13 7 -20 20 -20 13
0 20 -7 20 -20 0 -13 7 -20 20 -20 13 0 20 -7 20 -20 0 -13 7 -20 20 -20 13 0
20 -7 20 -20 0 -13 7 -20 20 -20 13 0 20 -7 20 -20 0 -13 7 -20 20 -20 13 0
20 -7 20 -20 0 -13 7 -20 20 -20 13 0 20 -7 20 -20 0 -13 7 -20 20 -20 13 0
20 -7 20 -20 0 -13 7 -20 20 -20 13 0 20 -7 20 -20 0 -13 7 -20 20 -20 13 0
20 -7 20 -20 0 -13 7 -20 20 -20 12 0 20 -7 20 -16 0 -9 9 -18 20 -21 11 -3
20 -12 20 -19 0 -10 14 -14 50 -14 36 0 50 4 50 14 0 7 9 16 20 19 11 3 20 12
20 21 0 9 8 16 20 16 13 0 20 7 20 20 0 13 7 20 20 20 13 0 20 7 20 20 0 13 7
20 20 20 13 0 20 7 20 20 0 13 7 20 20 20 13 0 20 7 20 20 0 13 7 20 20 20 13
0 20 7 20 20 0 13 7 20 20 20 13 0 20 7 20 20 0 13 7 20 20 20 13 0 20 7 20
20 0 13 7 20 20 20 13 0 20 7 20 20 0 13 7 20 20 20 13 0 20 7 20 20 0 13 7
20 20 20 13 0 20 7 20 20 0 13 7 20 20 20 13 0 20 7 20 20 0 13 7 20 20 20 13
0 20 7 20 20 0 13 7 20 20 20 18 0 20 7 20 86 0 77 -2 86 -20 91 -11 3 -20 12
-20 20 0 8 -9 17 -20 20 -11 3 -20 14 -20 24 0 12 -7 19 -20 19 -13 0 -20 7
-20 20 0 13 -7 20 -20 20 -13 0 -20 7 -20 20 0 17 -7 20 -39 20 -30 0 -40 4
-44 20 -4 17 -14 20 -60 20 -46 0 -55 3 -60 20 -4 17 -13 20 -59 20 -38 0 -49
-3 -38 -10 10 -7 -10 -10 -65 -10 -55 0 -75 3 -65 10 11 7 -3 10 -47 10 -36 0
-63 -4 -63 -10 0 -5 -16 -10 -35 -10 -19 0 -35 5 -35 10 0 16 -80 12 -86 -5z
m345 -421 c128 -129 128 -136 -1 -132 l-93 3 -3 98 c-2 89 -4 97 -22 97 -12 0
-20 -7 -20 -16 0 -9 -9 -18 -19 -21 -11 -3 -21 -13 -24 -24 -3 -10 -12 -19
-21 -19 -9 0 -16 -7 -16 -16 0 -9 -9 -18 -19 -21 -11 -3 -22 -14 -24 -25 -8
-30 -32 -16 -35 20 -2 19 -11 36 -23 42 -16 9 -19 22 -19 72 l0 60 117 -7 118
-7 104 -104z"/>
</g>
</svg>
